{"title":"Skinwalkers(2002)MP-4[DaScubaDude]","uid":12352348,"size":968439320,"categoryP":"video","categoryS":"movies","magnet":"?xt=urn:btih:aacb42768413dcd81901489bfb31135136400371&amp;dn=Skinwalkers%282002%29MP-4%5BDaScubaDude%5D&amp;tr=udp%3A%2F%2Ftracker.openbittorrent.com%3A80&amp;tr=udp%3A%2F%2Fopen.demonii.com%3A1337&amp;tr=udp%3A%2F%2Ftracker.coppersurfer.tk%3A6969&amp;tr=udp%3A%2F%2Fexodus.desync.com%3A6969","seeders":0,"leechers":0,"uploader":"dascuba","files":1,"time":1441441746,"description":"Skinwalkers (2002)\nTV Movie  |  100 min  |  Crime, Drama, Mystery  |  24 November 2002 (USA)\n7.2 Your rating:   -/10   Ratings: 7.2/10 from 589 users   \nReviews: 26 user | 3 critic\nThe story revolves around the legend of the skin walkers or &quot;S Dubs&quot;, a folk legend from Utah about the spirits of murdered Indians returning to seek revenge upon those who disrespect the land.\n\nDirector: Chris Eyre\nWriter: James Redford\nStars: Harrison Lowe, James Dalgam, Adam Beach \n\nGeneral\nComplete name                            : C:SkinwalkersSKINWALKERS_Title2.mp4\nFormat                                   : MPEG-4\nFormat profile                           : Base Media\nCodec ID                                 : isom\nFile size                                : 924 MiB\nDuration                                 : 1h 35mn\nOverall bit rate mode                    : Variable\nOverall bit rate                         : 1 349 Kbps\nMovie name                               : SKINWALKERS\nGenre                                    : Mystery\nWriting application                      : Lavf54.6.100\n\nVideo\nID                                       : 1\nFormat                                   : AVC\nFormat/Info                              : Advanced Video Codec\nFormat profile                           : Baseline@L3\nFormat settings, CABAC                   : No\nFormat settings, ReFrames                : 6 frames\nCodec ID                                 : avc1\nCodec ID/Info                            : Advanced Video Coding\nDuration                                 : 1h 35mn\nBit rate                                 : 1 214 Kbps\nWidth                                    : 720 pixels\nHeight                                   : 540 pixels\nDisplay aspect ratio                     : 4:3\nFrame rate mode                          : Constant\nFrame rate                               : 29.970 fps\nColor space                              : YUV\nChroma subsampling                       : 4:2:0\nBit depth                                : 8 bits\nScan type                                : Progressive\nBits/(Pixel*Frame)                       : 0.104\nStream size                              : 831 MiB (90%)\n\nAudio\nID                                       : 2\nFormat                                   : AAC\nFormat/Info                              : Advanced Audio Codec\nFormat profile                           : LC\nCodec ID                                 : 40\nDuration                                 : 1h 35mn\nBit rate mode                            : Variable\nBit rate                                 : 128 Kbps\nMaximum bit rate                         : 139 Kbps\nChannel(s)                               : 2 channels\nChannel positions                        : Front: L R\nSampling rate                            : 44.1 KHz\nCompression mode                         : Lossy\nStream size                              : 87.6 MiB (9%)","torrent":{"xt":"urn:btih:aacb42768413dcd81901489bfb31135136400371","amp;dn":"Skinwalkers%282002%29MP-4%5BDaScubaDude%5D","amp;tr":["udp%3A%2F%2Ftracker.openbittorrent.com%3A80","udp%3A%2F%2Fopen.demonii.com%3A1337","udp%3A%2F%2Ftracker.coppersurfer.tk%3A6969","udp%3A%2F%2Fexodus.desync.com%3A6969"],"infoHash":"aacb42768413dcd81901489bfb31135136400371","infoHashBuffer":{"type":"Buffer","data":[170,203,66,118,132,19,220,216,25,1,72,155,251,49,19,81,54,64,3,113]},"announce":[],"urlList":[]}}